<?xml version="1.0" encoding="UTF-8"?>
<svg xmlns="http://www.w3.org/2000/svg" version="1.1" viewBox="0 0 512 512">
  <defs>
    <style>
      .cls-1 {
        fill: #fff;
      }
    </style>
  </defs>
  <!-- Generator: Adobe Illustrator 28.7.1, SVG Export Plug-In . SVG Version: 1.2.0 Build 142)  -->
  <g>
    <g id="_Слой_1" data-name="Слой_1">
      <path class="cls-1" d="M444,140H68c-8.3,0-15,6.7-15,15s6.7,15,15,15h8v327.5c0,8,6.7,14.5,15,14.5h120v-117c0-8.3,6.7-15,15-15h60c8.3,0,15,6.7,15,15v117h120c8.3,0,15-6.5,15-14.5V170h8c8.3,0,15-6.7,15-15s-6.7-15-15-15ZM166,410h-15c-8.3,0-15-6.7-15-15s6.7-15,15-15h15c8.3,0,15,6.7,15,15s-6.7,15-15,15ZM181,350h-30c-8.3,0-15-6.7-15-15s6.7-15,15-15h30c8.3,0,15,6.7,15,15s-6.7,15-15,15ZM181,290h-30c-8.3,0-15-6.7-15-15s6.7-15,15-15h30c8.3,0,15,6.7,15,15s-6.7,15-15,15ZM181,230h-30c-8.3,0-15-6.7-15-15s6.7-15,15-15h30c8.3,0,15,6.7,15,15s-6.7,15-15,15ZM271,350h-30c-8.3,0-15-6.7-15-15s6.7-15,15-15h30c8.3,0,15,6.7,15,15s-6.7,15-15,15ZM271,290h-30c-8.3,0-15-6.7-15-15s6.7-15,15-15h30c8.3,0,15,6.7,15,15s-6.7,15-15,15ZM271,230h-30c-8.3,0-15-6.7-15-15s6.7-15,15-15h30c8.3,0,15,6.7,15,15s-6.7,15-15,15ZM361,410h-15c-8.3,0-15-6.7-15-15s6.7-15,15-15h15c8.3,0,15,6.7,15,15s-6.7,15-15,15ZM361,350h-30c-8.3,0-15-6.7-15-15s6.7-15,15-15h30c8.3,0,15,6.7,15,15s-6.7,15-15,15ZM361,290h-30c-8.3,0-15-6.7-15-15s6.7-15,15-15h30c8.3,0,15,6.7,15,15s-6.7,15-15,15ZM361,230h-30c-8.3,0-15-6.7-15-15s6.7-15,15-15h30c8.3,0,15,6.7,15,15s-6.7,15-15,15Z"/>
      <path class="cls-1" d="M241,410h30v102h-30v-102Z"/>
      <path class="cls-1" d="M95.3,63.3v19.6c0,4.2,2.1,8.1,5.5,10.6,3.4,2.4,7.8,3.1,11.8,1.8l17.6-5.8,17.2,5.8c1.4.5,2.8.7,4.2.7,2.7,0,5.3-.8,7.6-2.4,3.4-2.4,5.5-6.4,5.5-10.6l.2-20,10.9-15.8c2.3-3.4,2.9-7.6,1.6-11.5-1.3-3.9-4.3-6.9-8.1-8.3l-17.7-6.2-10.8-15.6C138.3,2.1,134.3,0,130.1,0h0c-4.3,0-8.2,2.1-10.7,5.6l-11.2,15.8-17.3,6c-3.8,1.3-6.9,4.4-8.1,8.2-1.3,3.9-.7,8.1,1.6,11.5l11,16.2Z"/>
      <path class="cls-1" d="M221.3,63.3v19.6c0,4.2,2.1,8.1,5.5,10.6,3.4,2.4,7.8,3.1,11.8,1.8l17.6-5.8,17.2,5.8c1.4.5,2.8.7,4.2.7,2.7,0,5.3-.8,7.6-2.4,3.4-2.4,5.5-6.4,5.5-10.6l.2-20,10.9-15.8c2.3-3.4,2.9-7.6,1.6-11.5-1.3-3.9-4.3-6.9-8.1-8.3l-17.7-6.2-10.8-15.6C264.3,2.1,260.3,0,256,0h0c-4.3,0-8.2,2.1-10.7,5.6l-11.2,15.8-17.3,6c-3.8,1.3-6.9,4.4-8.1,8.2-1.3,3.9-.7,8.1,1.6,11.5l11,16.2Z"/>
      <path class="cls-1" d="M347.3,63.3v19.6c0,4.2,2.1,8.1,5.5,10.6s7.8,3.1,11.8,1.8l17.6-5.8,17.2,5.8c1.4.5,2.8.7,4.2.7,2.7,0,5.3-.8,7.6-2.4,3.4-2.4,5.5-6.4,5.5-10.6l.2-20,10.9-15.8c2.3-3.4,2.9-7.6,1.6-11.5-1.3-3.9-4.3-6.9-8.1-8.3l-17.7-6.2-10.8-15.6C390.3,2.1,386.3,0,382.1,0h0c-4.3,0-8.2,2.1-10.7,5.6l-11.2,15.8-17.3,6c-3.8,1.3-6.9,4.4-8.1,8.2-1.3,3.9-.7,8.1,1.6,11.5l11,16.2Z"/>
      <path class="cls-1" d="M15,200c-8.3,0-15,6.7-15,15v282c0,8.3,6.7,15,15,15h31V200H15Z"/>
      <path class="cls-1" d="M497,200h-31v312h31c8.3,0,15-6.7,15-15V215c0-8.3-6.7-15-15-15Z"/>
    </g>
  </g>
</svg>