<svg width="50" height="50" viewBox="0 0 50 50" fill="none" xmlns="http://www.w3.org/2000/svg">
<path d="M16.6697 43.75H7.10516C6.63505 43.7488 6.25419 43.3681 6.25311 42.8979V7.10205C6.25428 6.63193 6.63505 6.25107 7.10516 6.25H16.6697C18.3956 6.25 19.7947 4.85088 19.7947 3.125C19.7947 1.39912 18.3956 0 16.6697 0H7.10516C3.18466 0.00458984 0.00770264 3.18164 0.00311279 7.10205V42.8979C0.00770264 46.8184 3.18466 49.9954 7.10516 50H16.6697C18.3956 50 19.7947 48.6009 19.7947 46.875C19.7947 45.1491 18.3956 43.75 16.6697 43.75Z" fill="white"/>
<path d="M47.2572 18.3708L39.1697 10.2895C37.9489 9.06932 35.9701 9.06981 34.7499 10.2906C33.5297 11.5114 33.5302 13.4902 34.751 14.7104L41.8593 21.8167L13.5447 21.875C11.8189 21.875 10.4197 23.2741 10.4197 25C10.4197 26.7259 11.8189 28.125 13.5447 28.125L41.9739 28.0729L34.751 35.2959C33.575 36.5592 33.6458 38.5365 34.909 39.7125C36.1097 40.8302 37.9701 40.8293 39.1697 39.7104L47.251 31.6292C50.9122 27.9681 50.9122 22.0321 47.2511 18.371L47.251 18.3709L47.2572 18.3708Z" fill="white"/>
</svg>
