<?xml version="1.0" encoding="UTF-8"?>
<svg id="Layer_1" xmlns="http://www.w3.org/2000/svg" version="1.1" viewBox="0 0 50 50">
  <!-- Generator: Adobe Illustrator 29.6.1, SVG Export Plug-In . SVG Version: 2.1.1 Build 9)  -->
  <defs>
    <style>
      .st0 {
        fill: #fff;
      }
    </style>
  </defs>
  <path class="st0" d="M16.67,43.75H7.11c-.47,0-.85-.38-.85-.85V7.1c0-.47.38-.85.85-.85h9.56c1.73,0,3.12-1.4,3.12-3.12s-1.4-3.12-3.12-3.12H7.11C3.18,0,0,3.18,0,7.1v35.8c0,3.92,3.18,7.1,7.1,7.1h9.56c1.73,0,3.12-1.4,3.12-3.12s-1.4-3.12-3.12-3.12Z"/>
  <path class="st0" d="M13.16,18.37l8.09-8.08c1.22-1.22,3.2-1.22,4.42,0,1.22,1.22,1.22,3.2,0,4.42l-7.11,7.11,28.31.06c1.73,0,3.12,1.4,3.12,3.12s-1.4,3.12-3.12,3.12l-28.43-.05,7.22,7.22c1.18,1.26,1.11,3.24-.16,4.42-1.2,1.12-3.06,1.12-4.26,0l-8.08-8.08c-3.66-3.66-3.66-9.6,0-13.26h0s0,0,0,0Z"/>
</svg>