<svg id="Layer_1" enable-background="new 0 0 64 64" height="512" viewBox="0 0 64 64" width="512" xmlns="http://www.w3.org/2000/svg">
  <g fill="#ffffff">
    <path d="m24.06 38.61h5.29v5.29h-5.29z"/>
    <path d="m9.51 22.74h5.29v5.29h-5.29z"/>
    <path d="m9.51 38.61h5.29v5.29h-5.29z"/>
    <path d="m53.17 6.86c0-3.65-2.97-6.61-6.61-6.61h-39.7c-3.65 0-6.61 2.97-6.61 6.61v6.61h52.92zm-15.88 1.33h-21.17c-.73 0-1.32-.59-1.32-1.32s.59-1.32 1.32-1.32h21.17c.73 0 1.32.59 1.32 1.32s-.59 1.32-1.32 1.32z"/>
    <path d="m50.52 34.65c.9 0 1.78.09 2.65.24v-18.76h-52.92v30.43c0 3.65 2.97 6.61 6.61 6.61h28.02c-.15-.86-.24-1.74-.24-2.65.01-8.75 7.13-15.87 15.88-15.87zm-14.55-13.23c0-.73.59-1.32 1.32-1.32h7.94c.73 0 1.32.59 1.32 1.32v7.94c0 .73-.59 1.32-1.32 1.32h-7.94c-.73 0-1.32-.59-1.32-1.32zm-18.52 23.81c0 .73-.59 1.32-1.32 1.32h-7.94c-.73 0-1.32-.59-1.32-1.32v-7.94c0-.73.59-1.32 1.32-1.32h7.94c.73 0 1.32.59 1.32 1.32zm0-15.88c0 .73-.59 1.32-1.32 1.32h-7.94c-.73 0-1.32-.59-1.32-1.32v-7.94c0-.73.59-1.32 1.32-1.32h7.94c.73 0 1.32.59 1.32 1.32zm14.55 15.88c0 .73-.59 1.32-1.32 1.32h-7.94c-.73 0-1.32-.59-1.32-1.32v-7.94c0-.73.59-1.32 1.32-1.32h7.94c.73 0 1.32.59 1.32 1.32zm0-15.88c0 .73-.59 1.32-1.32 1.32h-7.94c-.73 0-1.32-.59-1.32-1.32v-7.94c0-.73.59-1.32 1.32-1.32h7.94c.73 0 1.32.59 1.32 1.32z"/>
    <path d="m24.06 22.74h5.29v5.29h-5.29z"/>
    <path d="m38.61 22.74h5.29v5.29h-5.29z"/>
    <path d="m50.52 37.29c-7.31 0-13.23 5.92-13.23 13.23s5.92 13.23 13.23 13.23 13.23-5.92 13.23-13.23-5.92-13.23-13.23-13.23zm6.49 10.2-7.94 7.94c-.26.26-1.26.74-1.87 0l-3.18-3.17c-.52-.52-.52-1.35 0-1.87s1.35-.52 1.87 0l2.24 2.24 7-7c.52-.52 1.35-.52 1.87 0 .53.5.53 1.34.01 1.86z"/>
  </g>
</svg>