<?xml version="1.0" encoding="UTF-8"?>
<svg xmlns="http://www.w3.org/2000/svg" version="1.1" viewBox="0 0 512 512">
  <defs>
    <style>
      .cls-1 {
        fill: #fff;
      }
    </style>
  </defs>
  <!-- Generator: Adobe Illustrator 28.7.1, SVG Export Plug-In . SVG Version: 1.2.0 Build 142)  -->
  <g>
    <g id="Capa_1">
      <g>
        <path class="cls-1" d="M46.1,154.5c0-37.9,30.9-68.8,68.8-68.8h86.8c22.1,0,41.7,10.4,54.3,26.6,12.6-16.2,32.3-26.6,54.3-26.6h86.8c37.9,0,68.8,30.9,68.8,68.8v44.3c7.8,1.4,15.4,3.8,22.4,7V74.2C488.3,33.3,455.1,0,414.2,0H97.8C56.9,0,23.7,33.3,23.7,74.2v131.6c7-3.2,14.5-5.6,22.4-7v-44.3Z"/>
        <path class="cls-1" d="M114.9,115.7c-21.4,0-38.8,17.4-38.8,38.8v42.9h164.4v-42.9c0-21.4-17.4-38.8-38.8-38.8h-86.8Z"/>
        <path class="cls-1" d="M310.3,115.7c-21.4,0-38.8,17.4-38.8,38.8v42.9h164.4v-42.9c0-21.4-17.4-38.8-38.8-38.8h-86.8Z"/>
        <path class="cls-1" d="M0,496.9c0,8.3,6.7,15,15,15h34.5c8.3,0,15-6.7,15-15v-43.4c5.7,1,12.4,1.7,20.8,1.7,42.7,0,42.7-17,85.3-17s42.7,17,85.3,17,42.7-17,85.3-17,42.7,17,85.3,17,15.1-.7,20.8-1.7v43.4c0,8.3,6.7,15,15,15h34.5c8.3,0,15-6.7,15-15v-111.9H0v111.9Z"/>
        <path class="cls-1" d="M449.9,227.4H62.1c-34.3,0-62.1,27.8-62.1,62.1v65.7h512v-65.7c0-34.3-27.8-62.1-62.1-62.1h0Z"/>
      </g>
    </g>
  </g>
</svg>